<svg width="1537" height="765" viewBox="0 0 1537 765" fill="none" xmlns="http://www.w3.org/2000/svg">
<g clip-path="url(#clip0_111_467)">
<path d="M1537 0H0V765H1537V0Z" fill="#FFF4E0"/>
<path d="M1537 517.14C1469.03 504.135 1401.06 491.258 1328.48 479.018C1256.07 466.778 1179.05 455.303 1129.87 418.455C1080.68 381.48 1059.51 319.133 1042.43 268.26C1025.18 217.388 1012.2 177.99 979.923 135.15C947.646 92.31 895.9 46.155 844.325 0H1537V517.14Z" fill="#F8E8D1"/>
<path d="M1537 443.317C1478.76 432.097 1420.53 421.005 1358.37 410.55C1296.2 400.095 1230.11 390.277 1187.93 358.657C1145.92 327.037 1127.65 273.615 1112.96 230.01C1098.44 186.405 1087.17 152.49 1059.51 115.897C1031.84 79.1775 987.437 39.525 943.206 0H1537V443.317Z" fill="#EBD0B5"/>
<path d="M1537 369.368C1488.5 360.188 1439.83 350.88 1388.08 342.083C1336.34 333.413 1281.35 325.253 1246.17 298.86C1210.99 272.468 1195.96 227.97 1183.66 191.633C1171.54 155.295 1162.14 127.118 1139.09 96.5175C1116.03 65.9175 1079.14 33.0225 1042.26 0H1537V369.368Z" fill="#DFB79C"/>
<path d="M1537 295.545C1498.23 288.15 1459.3 280.628 1417.97 273.743C1376.47 266.73 1332.41 260.228 1304.4 239.063C1276.22 218.025 1264.1 182.453 1254.36 153.255C1244.63 124.185 1237.11 101.745 1218.67 77.265C1200.23 52.785 1170.68 26.3925 1141.14 0H1537V295.545Z" fill="#D49F86"/>
<path d="M1537 221.595C1507.8 216.112 1478.76 210.502 1447.68 205.275C1416.6 200.047 1383.64 195.075 1362.46 179.265C1341.46 163.455 1332.41 136.807 1325.06 115.005C1317.72 93.2025 1312.09 76.245 1298.25 57.885C1284.42 39.525 1262.22 19.7625 1240.19 0H1537V221.595Z" fill="#C88674"/>
<path d="M1537 147.773C1517.53 144.075 1498.23 140.378 1477.4 136.808C1456.73 133.365 1434.7 130.05 1420.7 119.595C1406.7 109.013 1400.55 91.1625 1395.6 76.6275C1390.81 62.0925 1387.06 50.8725 1377.83 38.6325C1368.61 26.3925 1353.76 13.1325 1339.07 0H1537V147.773Z" fill="#BB6D66"/>
<path d="M1537 73.8225C1527.27 72.0375 1517.53 70.125 1507.28 68.4675C1496.87 66.6825 1485.94 65.025 1478.76 59.7975C1471.76 54.4425 1468.86 45.645 1466.3 38.3775C1463.91 31.11 1462.03 25.3725 1457.42 19.2525C1452.81 13.1325 1445.46 6.63 1438.12 0H1537V73.8225Z" fill="#B46060"/>
<path d="M0 247.86C81.2902 243.78 162.41 239.573 213.985 273.105C265.559 306.638 287.59 377.783 342.239 413.227C397.058 448.8 484.667 448.545 527.703 478.762C570.91 508.852 569.544 569.16 589.525 621.945C609.677 674.73 651.176 719.865 692.675 765H0V247.86Z" fill="#F8E8D1"/>
<path d="M0 321.682C69.6773 318.24 139.355 314.67 183.415 343.357C227.647 372.172 246.432 433.117 293.396 463.462C340.36 493.935 415.502 493.807 452.39 519.562C489.278 545.445 488.083 597.21 505.331 642.472C522.58 687.608 558.102 726.368 593.794 765H0V321.682Z" fill="#EBD0B5"/>
<path d="M0 395.633C58.0644 392.7 116.129 389.768 152.846 413.61C189.734 437.58 205.446 488.453 244.554 513.698C283.662 539.07 346.167 538.943 376.907 560.49C407.817 582.038 406.793 625.133 421.138 662.873C435.483 700.485 465.199 732.743 494.743 765H0V395.633Z" fill="#DFB79C"/>
<path d="M0 469.455C46.4516 467.16 92.9031 464.738 122.277 483.99C151.821 503.115 164.288 543.787 195.541 564.06C226.964 584.332 277.002 584.205 301.594 601.417C326.186 618.63 325.502 653.182 336.945 683.272C348.387 713.362 372.125 739.245 395.863 765H0V469.455Z" fill="#D49F86"/>
<path d="M0 543.405C34.8387 541.62 69.6773 539.835 91.7077 554.243C113.909 568.523 123.302 598.995 146.698 614.295C170.095 629.468 207.666 629.34 226.11 642.345C244.725 655.223 244.041 681.105 252.751 703.673C261.29 726.368 279.051 745.62 296.812 765H0V543.405Z" fill="#C88674"/>
<path d="M0 617.228C23.2258 616.08 46.4516 614.933 61.1384 624.495C75.8253 634.058 82.1441 654.33 97.8557 664.53C113.396 674.603 138.501 674.603 150.797 683.145C163.093 691.815 162.751 709.028 168.387 724.2C174.193 739.245 185.977 752.123 197.931 765H0V617.228Z" fill="#BB6D66"/>
<path d="M0 691.178C11.6129 690.54 23.2258 689.903 30.5692 694.748C37.9127 699.465 41.1574 709.665 48.8424 714.765C56.6982 719.865 69.165 719.738 75.313 724.073C81.6318 728.408 81.2902 737.078 84.1934 744.6C87.0967 752.123 93.0739 758.498 98.8803 765H0V691.178Z" fill="#B46060"/>
</g>
<defs>
<clipPath id="clip0_111_467">
<rect width="1537" height="765" fill="white"/>
</clipPath>
</defs>
</svg>
